<?xml version="1.0" encoding="UTF-8" standalone="no"?>
<svg
   xmlns:dc="http://purl.org/dc/elements/1.1/"
   xmlns:cc="http://creativecommons.org/ns#"
   xmlns:rdf="http://www.w3.org/1999/02/22-rdf-syntax-ns#"
   xmlns:svg="http://www.w3.org/2000/svg"
   xmlns="http://www.w3.org/2000/svg"
   xmlns:sodipodi="http://sodipodi.sourceforge.net/DTD/sodipodi-0.dtd"
   xmlns:inkscape="http://www.inkscape.org/namespaces/inkscape"
   version="1"
   width="600"
   height="126"
   id="svg17"
   sodipodi:docname="archlogo.svg"
   inkscape:version="0.92.2 2405546, 2018-03-11">
  <metadata
     id="metadata23">
    <rdf:RDF>
      <cc:Work
         rdf:about="">
        <dc:format>image/svg+xml</dc:format>
        <dc:type
           rdf:resource="http://purl.org/dc/dcmitype/StillImage" />
      </cc:Work>
    </rdf:RDF>
  </metadata>
  <defs
     id="defs21" />
  <sodipodi:namedview
     pagecolor="#ffffff"
     bordercolor="#666666"
     borderopacity="1"
     objecttolerance="10"
     gridtolerance="10"
     guidetolerance="10"
     inkscape:pageopacity="0"
     inkscape:pageshadow="2"
     inkscape:window-width="2560"
     inkscape:window-height="1413"
     id="namedview19"
     showgrid="false"
     inkscape:zoom="1.5933473"
     inkscape:cx="272.79727"
     inkscape:cy="-61.349564"
     inkscape:window-x="0"
     inkscape:window-y="27"
     inkscape:window-maximized="1"
     inkscape:current-layer="svg17" />
  <path
     d="M159.568 34.427c-8.89-.014-16.267 1.809-19.12 2.803l-2.937 15.857c-.007.058 14.617-3.9 21.059-3.667 10.665.383 11.646 4.076 11.46 9.06.182.292-2.752-4.503-11.979-4.664-11.64-.2-28.069 4.122-28.046 21.692-.314 19.765 14.764 25.579 25.032 25.686 9.232-.168 13.563-3.496 15.934-5.28 3.115-3.257 6.679-6.532 10.078-10.462-3.216 5.844-6.005 9.884-8.907 12.977v2.611l14.033-2.361.096-38.144c-.143-5.399 3.096-26.057-26.703-26.108zm-2.016 33.21c5.817.08 12.488 2.948 12.497 9.849.03 6.277-7.863 9.651-12.996 9.598-5.135-.053-11.949-4.036-11.979-10.155.099-5.47 6.426-9.432 12.478-9.291zm37.972-29.685l-.095 63.166 16.348-3.15.027-35.814c.004-5.333 7.62-11.564 17.178-11.464 2.028-3.67 5.84-13.05 6.77-15.183-21.351-.051-21.623 6.137-25.336 9.18-.04-5.806-.013-9.292-.013-9.292l-14.879 2.557zm92.002 8.292c-.158-.074-8.526-9.788-25.35-9.864-15.758-.262-33.433 5.847-33.716 32.27.138 23.232 16.979 32.311 33.805 32.488 18.007.187 25.172-11.26 25.602-11.543-2.149-1.863-10.196-9.837-10.196-9.837s-5.027 7.157-14.779 7.248c-9.755.093-18.234-7.54-18.354-18.189-.125-10.65 7.795-16.419 18.427-16.885 9.205-.002 14.516 5.943 14.516 5.943zm20.606-30.399l-15.434 3.628.115 82.277 15.204-2.745.172-38.72c.033-4.06 5.874-10.295 15.626-10.097 9.325.097 11.41 6.215 11.384 6.988l.269 44.824 14.993-2.65.057-47.53c.099-4.574-10.018-14.233-26.28-14.302-7.729.012-12.009 1.762-14.187 3.052-3.726 2.879-7.985 5.637-12.17 9.157 3.869-4.97 7.117-8.407 10.29-10.961l-.04-22.921z"
     fill="#fff"
     fill-rule="evenodd"
     id="path11" />
  <path
     id="path27"
     d="m 521.237,40.401 -4.882,3.82 18.717,24.494 -19.963,28.3 5.179,3.843 18.766,-26.28 19.368,26.902 4.791,-3.82 -20.757,-28.765 16.56,-23.262 -5.092,-4.305 -15.085,21.525 z m -13.645,59.037 -6.962,1.42 -0.033,-12.433 c -10e-4,-0.534 -3.825,13.89 -22.258,13.57 -17.9,-0.1 -20.827,-13.957 -20.73,-17.064 l -0.221,-43.725 7.397,-1.494 0.114,43.19 c 0.003,1.18 1.416,12.096 14.065,12.135 12.646,0.037 21.506,-7.616 21.569,-19.139 l -0.09,-34.076 6.885,-1.757 z m -110.954,-58.546 6.962,-1.421 0.033,12.434 c 0.001,0.534 3.823,-13.89 22.258,-13.57 17.9,0.1 20.827,13.957 20.73,17.064 l 0.221,43.725 -6.102,1.324 -0.035,-43.189 c 0.07,-1.261 -2.79,-11.927 -15.439,-11.966 -12.646,-0.037 -21.409,9.186 -21.393,15.078 l 0.1,38.047 -7.07,1.847 z m -19.024,-20.365 4.92,-4.015 4.086,4.547 -4.921,4.121 z m 1.45,21.448 6.101,-2.716 0.052,59.478 -5.892,1.217 z m -18.928,-24.757 6.962,-1.742 0.33,82.95 -7.074,1.204 z"
     style="fill:#1793d1;fill-opacity:1" />
  <path
     d="M576.771 93.265V80.603h-4.73v-1.695h11.38v1.695h-4.75v12.662h-1.9m8.629 0V78.908h2.859l3.398 10.166c.314.947.542 1.655.686 2.125.163-.522.418-1.29.764-2.301l3.437-9.99h2.556v14.357h-1.831V81.25l-4.172 12.016h-1.714l-4.152-12.222v12.222h-1.832"
     font-weight="400"
     font-size="8.441"
     font-family="DejaVu Sans Mono"
     fill="gray"
     id="path15" />
  <path
     inkscape:connector-curvature="0"
     style="fill:#e9e8e7;fill-opacity:1;stroke-width:1.90563238"
     d="m 61.037898,1.1583829 c -5.44803,13.2633801 -8.75624,21.9544401 -14.82002,34.8241501 3.71743,3.91389 8.28762,8.45278 15.70145,13.60104 -7.9703,-3.25683 -13.40642,-6.51699 -17.46806,-9.91055 -1.94291,4.02626 -4.16022,8.48461 -6.78254,13.58991 -2.92375,5.69212 -6.52716,12.49053 -10.62949,20.11411 15.4857,-8.65641 32.6974,-21.20426 62.95895,-10.59302 -16.52431,-31.60882 -20.24027,-41.30206 -28.96029,-61.6256401 z"
     id="path11-6" />
  <path
     inkscape:connector-curvature="0"
     style="fill:#d4213d;fill-opacity:1;stroke-width:1.90563238"
     d="m 69.948438,58.192183 c -18.42681,-0.59932 -30.87452,7.882 -42.52539,14.39477 C 20.505688,85.441823 11.663338,101.42082 0.05008811,122.14338 19.440408,111.02647 34.471108,104.16767 48.480328,101.55081 c -0.60045,-2.565577 -0.91932,-5.352877 -0.89637,-8.248887 l 0.0153,-0.60828 c 0.30787,-12.33988 6.77672,-21.82609 14.43533,-21.18232 7.65669,0.64377 13.61899,11.17354 13.31111,23.51531 -0.0593,2.32439 -0.33093,4.55801 -0.79179,6.631737 13.85815,2.69282 28.749052,9.51623 47.881222,20.48501 -3.77289,-6.89727 -7.15534,-13.11171 -10.37176,-19.03478 -5.06558,-3.898687 -10.34701,-8.971337 -21.124522,-14.465217 7.4081,1.91232 12.717502,4.12231 16.851802,6.58724 -7.26599,-13.4351 -13.136662,-23.61677 -17.858152,-32.64833 -7.49386,-2.62774 -13.91856,-4.19284 -19.98368,-4.39011 z"
     id="path11-7"
     sodipodi:nodetypes="scccccccccccccs" />
</svg>
